HIERARCHY
ROOT Hips
{
	OFFSET 0.000000 0.000000 0.000000
	CHANNELS 6 Xposition Yposition Zposition Xrotation Yrotation Zrotation
	JOINT LeftUpLeg_virtual
	{
		OFFSET 0.000000 0.000000 0.000000
		CHANNELS 3 Xrotation Yrotation Zrotation
		JOINT LeftUpLeg
		{
			OFFSET 13.026900 -6.336304 -1.092800
			CHANNELS 3 Xrotation Yrotation Zrotation
			JOINT LeftLeg
			{
				OFFSET 0.524474 -46.096886 9.782700
				CHANNELS 3 Xrotation Yrotation Zrotation
				JOINT LeftFoot
				{
					OFFSET -0.524474 -53.427422 -12.948200
					CHANNELS 3 Xrotation Yrotation Zrotation
					JOINT LeftToeBase
					{
						OFFSET 0.192200 -14.009700 16.364100
						CHANNELS 3 Xrotation Yrotation Zrotation
						JOINT LeftToe_End
						{
							OFFSET -1.784700 -0.561700 9.474800
							CHANNELS 3 Xrotation Yrotation Zrotation
							End Site
							{
								OFFSET 0 0 0
							}
						}
					}
				}
			}
		}
	}
	JOINT RightUpLeg_virtual
	{
		OFFSET 0.000000 0.000000 0.000000
		CHANNELS 3 Xrotation Yrotation Zrotation
		JOINT RightUpLeg
		{
			OFFSET -12.883000 -6.336304 -1.092800
			CHANNELS 3 Xrotation Yrotation Zrotation
			JOINT RightLeg
			{
				OFFSET -0.524587 -46.096825 9.782800
				CHANNELS 3 Xrotation Yrotation Zrotation
				JOINT RightFoot
				{
					OFFSET 0.524587 -53.427383 -12.948300
					CHANNELS 3 Xrotation Yrotation Zrotation
					JOINT RightToeBase
					{
						OFFSET -0.192200 -14.009700 16.364100
						CHANNELS 3 Xrotation Yrotation Zrotation
						JOINT RightToe_End
						{
							OFFSET 1.784700 -0.561700 9.474800
							CHANNELS 3 Xrotation Yrotation Zrotation
							End Site
							{
								OFFSET 0 0 0
							}
						}
					}
				}
			}
		}
	}
	JOINT Spine_virtual
	{
		OFFSET 0.000000 0.000000 0.000000
		CHANNELS 3 Xrotation Yrotation Zrotation
		JOINT Spine
		{
			OFFSET 0.072000 7.257294 -0.789700
			CHANNELS 3 Xrotation Yrotation Zrotation
			JOINT Spine1
			{
				OFFSET 0.000000 12.508769 -0.658067
				CHANNELS 3 Xrotation Yrotation Zrotation
				JOINT Spine1_split
				{
					OFFSET 0.000000 12.508769 -0.658067
					CHANNELS 3 Xrotation Yrotation Zrotation
					JOINT Spine2
					{
						OFFSET 0.000000 12.508769 -0.658067
						CHANNELS 3 Xrotation Yrotation Zrotation
						JOINT Neck_virtual
						{
							OFFSET 0.000000 0.000000 0.000000
							CHANNELS 3 Xrotation Yrotation Zrotation
							JOINT Neck
							{
								OFFSET 0.000000 14.033295 7.520400
								CHANNELS 3 Xrotation Yrotation Zrotation
								JOINT Head
								{
									OFFSET 0.000000 8.198502 5.703100
									CHANNELS 3 Xrotation Yrotation Zrotation
									JOINT HeadTop_End
									{
										OFFSET 0.000000 17.760803 13.332701
										CHANNELS 3 Xrotation Yrotation Zrotation
										End Site
										{
											OFFSET 0 0 0
										}
									}
								}
							}
						}
						JOINT LeftShoulder_virtual
						{
							OFFSET 0.000000 0.000000 0.000000
							CHANNELS 3 Xrotation Yrotation Zrotation
							JOINT LeftShoulder
							{
								OFFSET 6.292450 5.785301 -0.669000
								CHANNELS 3 Xrotation Yrotation Zrotation
								JOINT LeftShoulder_split
								{
									OFFSET 6.292450 5.785301 -0.669000
									CHANNELS 3 Xrotation Yrotation Zrotation
									JOINT LeftArm
									{
										OFFSET 13.907140 -6.093903 1.965100
										CHANNELS 3 Xrotation Yrotation Zrotation
										JOINT LeftForeArm
										{
											OFFSET 34.140198 0.000000 0.000000
											CHANNELS 3 Xrotation Yrotation Zrotation
											JOINT LeftHand
											{
												OFFSET 40.960209 0.000000 0.000000
												CHANNELS 3 Xrotation Yrotation Zrotation
												End Site
												{
													OFFSET 0 0 0
												}
											}
										}
									}
								}
							}
						}
						JOINT RightShoulder_virtual
						{
							OFFSET 0.000000 0.000000 0.000000
							CHANNELS 3 Xrotation Yrotation Zrotation
							JOINT RightShoulder
							{
								OFFSET -6.292450 5.785301 -0.669000
								CHANNELS 3 Xrotation Yrotation Zrotation
								JOINT RightShoulder_split
								{
									OFFSET -6.292450 5.785301 -0.669000
									CHANNELS 3 Xrotation Yrotation Zrotation
									JOINT RightArm
									{
										OFFSET -13.907140 -6.093903 1.965100
										CHANNELS 3 Xrotation Yrotation Zrotation
										JOINT RightForeArm
										{
											OFFSET -34.140198 0.000000 0.000000
											CHANNELS 3 Xrotation Yrotation Zrotation
											JOINT RightHand
											{
												OFFSET -40.960209 0.000000 0.000000
												CHANNELS 3 Xrotation Yrotation Zrotation
												End Site
												{
													OFFSET 0 0 0
												}
											}
										}
									}
								}
							}
						}
					}
				}
			}
		}
	}
}
MOTION
Frames: 10
Frame Time: 0.03333333
2.132850 117.986679 4.200108 0.000000 0.000000 0.000000 -5.451481 -5.424885 8.404345 -32.261367 0.883359 1.735638 21.288141 12.121554 5.682895 25.095090 4.743955 -8.839069 -6.038717 1.260002 -0.620337 0.000000 0.000000 0.000000 -5.829943 -3.331246 8.066654 -4.452027 -7.667789 8.907062 10.624789 -12.642361 -1.940464 -5.260465 -13.663431 -15.476507 -0.260824 0.347101 -1.897590 0.000000 0.000000 0.000000 -7.125873 -10.439135 7.398995 1.738260 1.497251 -2.374158 2.284041 3.257413 -4.553475 0.801457 -1.989420 0.099906 0.000000 0.000000 0.000000 0.448831 3.143085 -4.517509 2.792057 -1.105765 0.744728 10.411133 10.592212 7.869788 0.000000 0.000000 0.000000 1.117171 2.966642 -4.715630 -0.181732 3.264604 -1.101517 -4.120179 0.627955 -1.180457 -15.340948 6.063540 -21.333377 0.143003 -18.116740 -1.244659 0.000000 0.000000 0.000000 0.804983 3.204397 -4.345981 1.179163 -2.474178 5.435569 -3.604967 -0.199209 -1.065597 -47.922875 33.092861 14.911913 -0.305912 12.873127 0.280876 0.000000 0.000000 0.000000 
1.025789 117.534882 6.089954 0.000000 0.000000 0.000000 -6.420496 -7.096088 8.425348 -33.725415 3.130042 -0.039969 20.557872 13.478377 5.710932 24.734915 6.368874 -7.677887 -6.161408 1.026726 -0.249358 0.000000 0.000000 0.000000 -5.896479 -5.941027 8.059043 -4.691353 -8.593607 8.751756 13.936198 -12.837429 -1.184889 -2.738868 -13.799636 -16.354304 -2.214545 0.185157 -1.179228 0.000000 0.000000 0.000000 -7.575565 -11.866958 7.479362 1.929589 1.697857 -2.764626 2.316159 3.603236 -4.524480 0.838738 -1.451440 0.024799 0.000000 0.000000 0.000000 0.596181 3.519622 -4.495495 2.964669 -1.180363 0.963980 10.045104 10.475207 7.875323 0.000000 0.000000 0.000000 1.179301 3.368806 -4.626244 -0.144047 3.404520 0.159120 -4.780685 0.507924 -0.366406 -17.732983 6.650393 -19.784449 -0.303514 -17.860390 -1.194644 0.000000 0.000000 0.000000 0.877433 3.527311 -4.326489 0.997329 -2.663523 5.129753 -3.761884 0.516945 -1.394633 -48.679520 35.384700 14.959871 -0.041595 14.646697 -0.186068 0.000000 0.000000 0.000000 
-0.253930 116.786781 8.375820 0.000000 0.000000 0.000000 -6.978796 -11.126305 8.361968 -34.211547 5.864105 -2.953426 20.272666 15.111109 5.479821 24.718642 8.658606 -6.633331 -6.093361 0.667431 0.499878 0.000000 0.000000 0.000000 -5.979180 -11.070411 8.185573 -5.025272 -8.614794 7.755583 19.496662 -11.855641 -0.232912 -0.100798 -12.413840 -15.691368 -6.503161 -0.078107 -0.286050 0.000000 0.000000 0.000000 -8.070482 -14.672039 7.518235 1.858734 2.446554 -3.194940 2.373894 4.427127 -4.409618 0.753854 -1.219304 0.057740 0.000000 0.000000 0.000000 0.777624 4.382856 -4.373591 2.908301 -1.250064 1.056446 9.865291 10.120598 7.685377 0.000000 0.000000 0.000000 1.213537 4.303331 -4.400128 -0.231157 3.486326 2.041971 -4.955521 0.752433 -0.264443 -19.519678 7.820045 -16.150034 -0.534172 -17.853416 -0.970420 0.000000 0.000000 0.000000 1.011585 4.322678 -4.222832 0.983312 -3.157134 4.585524 -3.457295 0.593141 -1.264707 -49.536388 39.591912 14.396521 0.265268 16.629653 -0.633234 0.000000 0.000000 0.000000 
-1.786680 115.810089 10.467022 0.000000 0.000000 0.000000 -7.007166 -16.632496 8.227229 -33.917558 8.211329 -6.361683 20.984884 16.344250 5.027215 25.574953 10.825276 -6.396064 -7.050356 0.251993 1.642683 0.000000 0.000000 0.000000 -5.710755 -17.076262 8.354175 -4.610589 -7.712742 6.623406 24.280527 -10.195943 0.202835 0.056184 -9.466657 -15.112543 -10.408307 -0.344932 0.559472 0.000000 0.000000 0.000000 -8.395159 -18.135561 7.356697 1.627672 3.456833 -3.548437 2.439151 5.517414 -4.176063 0.517256 -1.559922 0.217743 0.000000 0.000000 0.000000 0.920630 5.510349 -4.099196 2.641621 -1.186826 1.031045 9.873585 9.714151 7.269991 0.000000 0.000000 0.000000 1.209617 5.518954 -4.049921 -0.397695 3.537727 4.129014 -4.556900 1.272091 -0.736365 -20.469720 9.502753 -11.330984 -0.654384 -17.241173 -0.653932 0.000000 0.000000 0.000000 1.185915 5.424093 -4.013681 1.088832 -3.892892 3.876259 -3.010356 0.116143 -0.731280 -50.089063 44.694692 13.049375 0.545437 18.118376 -1.019701 0.000000 0.000000 0.000000 
-3.471138 114.815384 12.232243 0.000000 0.000000 0.000000 -6.500003 -22.815320 8.008409 -33.227566 9.951153 -9.847535 22.381198 17.293737 4.533018 26.651663 12.840050 -6.082284 -9.466422 -0.191961 2.811879 0.000000 0.000000 0.000000 -4.955543 -22.805535 8.397860 -2.764182 -6.599631 6.202231 26.448661 -8.986139 -0.088673 -2.593997 -5.805828 -15.433741 -12.304008 -0.423258 1.136945 0.000000 0.000000 0.000000 -7.999606 -22.012566 6.979562 1.183234 4.413567 -3.746036 2.444539 6.629332 -3.823837 0.328515 -1.698449 0.248631 0.000000 0.000000 0.000000 1.011226 6.644203 -3.695802 2.382899 -0.984033 0.964845 10.055591 9.529333 6.650773 0.000000 0.000000 0.000000 1.126007 6.743393 -3.620772 -0.602894 3.612323 5.950074 -4.062145 1.842350 -1.013617 -20.834801 11.412473 -6.200092 -0.784785 -15.951926 -0.317196 0.000000 0.000000 0.000000 1.307435 6.569103 -3.697727 1.280056 -4.694707 3.187962 -2.660514 -0.329508 -0.139333 -50.474408 49.665246 11.231881 0.717155 18.735950 -1.294437 0.000000 0.000000 0.000000 
-5.319343 113.738884 13.765446 0.000000 0.000000 0.000000 -5.734525 -28.631441 7.667733 -32.337165 11.237302 -12.858764 24.289806 18.046174 4.082572 26.643458 15.060997 -4.901671 -11.715928 -0.508303 3.223689 0.000000 0.000000 0.000000 -4.120155 -27.258534 8.207132 0.086264 -6.131853 6.875358 25.847601 -8.583329 -0.844028 -6.203176 -2.289472 -15.776154 -12.878278 -0.231052 1.196673 0.000000 0.000000 0.000000 -7.124578 -25.856501 6.342960 0.553610 5.036976 -3.798805 2.283455 7.554725 -3.439228 0.741372 -1.485405 0.122536 0.000000 0.000000 0.000000 1.003456 7.568571 -3.273977 2.392561 -0.641732 0.918075 10.382728 9.705214 5.917309 0.000000 0.000000 0.000000 0.960411 7.756855 -3.207428 -0.783276 3.721896 7.148455 -3.964017 2.205746 -1.231426 -21.111722 13.315262 -1.369487 -1.082915 -14.346713 -0.062353 0.000000 0.000000 0.000000 1.313361 7.548878 -3.363366 1.506678 -5.441621 2.557263 -2.323701 -0.402496 0.307664 -50.951261 53.810204 9.566542 0.726448 18.692148 -1.417972 0.000000 0.000000 0.000000 
-7.438202 112.645370 15.322849 0.000000 0.000000 0.000000 -4.906165 -33.474002 7.197848 -31.249690 12.099468 -15.146091 26.282250 18.860768 3.727789 24.350849 17.782203 -2.552205 -12.512151 -0.514307 2.602896 0.000000 0.000000 0.000000 -3.209295 -30.310337 7.749862 2.818771 -6.791816 8.416783 24.378386 -8.541882 -1.729143 -9.015817 0.682312 -15.319435 -14.768016 0.249568 0.465328 0.000000 0.000000 0.000000 -6.042945 -29.517882 5.445526 -0.172971 5.304154 -3.685553 1.954197 8.243248 -3.153343 1.450363 -0.543203 0.207789 0.000000 0.000000 0.000000 0.910049 8.193145 -2.978322 2.806867 -0.232984 1.026252 10.759385 10.330035 5.221202 0.000000 0.000000 0.000000 0.684492 8.462248 -2.933902 -0.921165 3.975931 7.629305 -3.866028 2.099058 -0.973140 -22.061318 14.792035 2.669773 -1.601686 -12.896237 0.051491 0.000000 0.000000 0.000000 1.134896 8.242604 -3.139693 1.703752 -6.084265 2.104622 -2.019727 -0.199561 0.501433 -52.113066 56.791216 8.949944 0.602356 18.393906 -1.432152 0.000000 0.000000 0.000000 
-9.688606 111.539391 16.493366 0.000000 0.000000 0.000000 -4.135550 -36.792358 6.575005 -30.178187 13.016611 -16.493840 27.971199 19.793753 3.351460 19.584831 20.937014 1.089339 -11.497740 -0.172413 1.137423 0.000000 0.000000 0.000000 -2.652553 -32.583107 6.988496 4.473684 -8.656151 10.399669 24.311519 -8.523118 -2.535639 -10.059984 3.066255 -13.759199 -19.998898 0.996185 -1.049616 0.000000 0.000000 0.000000 -5.027498 -32.791783 4.511832 -0.798349 5.270690 -3.463355 1.501528 8.739717 -3.117392 1.744544 0.358169 0.267138 0.000000 0.000000 0.000000 0.787977 8.551305 -2.970131 3.641633 0.180748 1.330783 11.077729 11.350475 4.700359 0.000000 0.000000 0.000000 0.247251 8.888590 -2.898336 -1.033971 4.342124 7.382441 -3.890737 1.507389 -0.255846 -23.637529 15.482587 5.830386 -2.201040 -12.128791 0.027310 0.000000 0.000000 0.000000 0.727410 8.640436 -3.150612 1.836768 -6.569231 1.944156 -1.706610 0.194573 0.433772 -54.342016 58.319440 10.126437 0.428018 18.197507 -1.364293 0.000000 0.000000 0.000000 
-11.944536 110.363869 16.941082 0.000000 0.000000 0.000000 -3.691084 -38.752718 5.894326 -29.578103 14.139523 -16.679348 29.391438 20.238832 2.841403 13.832092 23.517516 4.656239 -9.402660 0.301389 -0.524370 0.000000 0.000000 0.000000 -2.679978 -34.396215 6.066204 4.351233 -11.642493 11.888788 28.067947 -8.329975 -2.936542 -9.267582 5.065441 -11.822229 -26.641629 2.051931 -2.953808 0.000000 0.000000 0.000000 -4.450808 -35.416170 3.717681 -1.078330 5.047058 -3.330693 1.001640 9.049631 -3.402507 1.625673 0.753670 0.489263 0.000000 0.000000 0.000000 0.635733 8.713299 -3.313854 4.543336 0.500592 1.751385 11.126582 12.635271 4.489788 0.000000 0.000000 0.000000 -0.240025 9.094392 -3.175828 -1.115838 4.739660 6.686421 -3.919305 0.412024 0.620619 -25.341796 15.325298 8.030681 -2.725133 -11.913767 -0.127937 0.000000 0.000000 0.000000 0.216225 8.812987 -3.476953 1.879759 -6.811509 2.190958 -1.416401 0.396783 0.282348 -56.906387 58.079694 12.752598 0.301407 18.389692 -1.251415 0.000000 0.000000 0.000000 
-14.100492 108.988869 16.767365 0.000000 0.000000 0.000000 -3.736990 -39.720992 5.339053 -29.758960 15.086886 -15.970869 30.826129 19.918630 2.189515 9.188675 24.968960 6.711530 -7.480305 0.677296 -1.644110 0.000000 0.000000 0.000000 -3.196933 -35.932187 5.282100 1.957103 -15.555848 11.785949 36.071653 -7.871769 -2.814621 -6.334119 6.806980 -9.481139 -33.376006 3.288048 -4.699444 0.000000 0.000000 0.000000 -4.159187 -37.409718 3.278746 -0.949177 4.810313 -3.453849 0.581608 9.206648 -3.951673 1.240020 0.697570 0.671238 0.000000 0.000000 0.000000 0.468595 8.757375 -3.963979 5.102295 0.769730 2.200910 10.791317 13.953899 4.668569 0.000000 0.000000 0.000000 -0.622626 9.129164 -3.740859 -1.159563 5.116708 5.834058 -3.671977 -1.118213 1.463535 -26.817630 14.333688 9.074565 -3.002485 -11.514982 -0.358460 0.000000 0.000000 0.000000 -0.259894 8.824454 -4.084957 1.813490 -6.756346 3.027379 -1.080130 0.359230 0.022572 -58.831650 55.680652 16.148807 0.273912 19.406825 -1.164472 0.000000 0.000000 0.000000 
